<?xml version="1.0" encoding="utf-8"?>
<svg version="1.1" id="Layer_1" xmlns="http://www.w3.org/2000/svg" xmlns:xlink="http://www.w3.org/1999/xlink" x="0px" y="0px"
	 viewBox="0 0 954.2 173.5" enable-background="new 0 0 954.2 173.5" xml:space="preserve">
<g>
	<g>
		<rect y="27.9" fill="#084E99" width="317.9" height="135.4"/>
	</g>
	<g>
		<rect x="290.8" y="0.9" fill="#FEDC00" width="44.7" height="135.4"/>
	</g>
	<g>
		<g>
			<path fill="#FFFFFF" d="M50,71.7c3.9-0.9,8.2-4.3,8.2-10.8c0-7-4.8-11.2-12.9-11.2H27.5l-0.4,0.4v36.8l0.4,0.4h6.4l0.4-0.4V72.7
				l0.5-0.5h5.9l1,0.5l10.9,14.2l1,0.5h3.1l0.4-0.4v-5.3L50,72.4C50,72.4,50,71.7,50,71.7z M45.3,66.1H34.7l-0.4-0.4v-9.2l0.4-0.5
				h10.6c3.9,0,5.6,1.6,5.6,5.1C50.9,64.5,49.2,66.1,45.3,66.1z"/>
		</g>
		<g>
			<path fill="#FFFFFF" d="M66.2,98.1c7.8,0,9.8-5,11.8-10l8.7-21.7v-5.3l-0.4-0.4h-4.7l-0.5,0.5L74.5,80h-0.6l-6.6-18.8l-0.5-0.5
				h-4.7l-0.4,0.4v5.3l8.7,21.2v0.6c-0.5,2-1.2,3.8-4,3.7h-3.2l-0.4,0.4v5.3l0.4,0.4h3C66.2,98,66.2,98.1,66.2,98.1z"/>
		</g>
		<g>
			<path fill="#FFFFFF" d="M114.5,76.6l0.4-0.4v-2.1c0-10.3-6.9-14-12.9-14c-5.9,0-12.9,3.7-12.9,14c0,6.4,3.5,14,13.4,14
				c9.1,0,10.9-5.9,11.2-7.9l-0.4-0.4h-6.4l-0.5,0.5c-0.5,1-2.1,1.7-3.9,1.7c-4.7,0-5.6-3.5-5.6-4.8l0.4-0.4h17.2V76.6z M97.1,71.1
				c0-1.3,0.9-4.8,5.1-4.8c4.2,0,5.1,3.6,5.1,4.8l-0.4,0.4h-9.3L97.1,71.1z"/>
		</g>
		<g>
			<path fill="#FFFFFF" d="M126.8,63.1l-0.7-2l-0.5-0.5h-5.8l-0.4,0.4v25.9l0.4,0.4h6.4l0.4-0.4v-13c0-5.1,1.8-7.2,6.1-7.2h3.7
				l0.4-0.4V61l-0.4-0.4h-3.2c-5,0-6,2.4-6,2.5H126.8z"/>
		</g>
		<g>
			<path fill="#FFFFFF" d="M153.6,71.5c-0.6-0.1-1.1-0.2-1.7-0.2c-2.7-0.4-5-0.7-5-2.6c0-2,1.5-2.3,4-2.3c2.7,0,3.9,0.5,4,1.7
				l0.4,0.4h6.4l0.4-0.4c0-4.9-4.3-7.9-11.2-7.9c-7,0-11.2,3-11.2,8c0,4.5,3.4,7.4,10.2,8.5c0.4,0.1,0.8,0.1,1.2,0.2
				c2.6,0.4,4.4,0.7,4.4,2.7c0,2.1-2.6,2.3-4.5,2.3c-2.3,0-4.5-0.3-4.5-2.8l-0.4-0.4h-6.5l-0.4,0.4c0,5.6,4.5,9,11.8,9
				c5.7,0,11.8-2.2,11.8-8.5C162.7,73,156.5,72,153.6,71.5z"/>
		</g>
		<g>
			<path fill="#FFFFFF" d="M179.2,60.1c-8.1,0-13.4,5.5-13.4,14s5.3,14,13.4,14s13.4-5.5,13.4-14S187.3,60.1,179.2,60.1z
				 M179.2,81.8c-3.9,0-6.1-2.8-6.1-7.8s2.2-7.8,6.1-7.8c3.9,0,6.1,2.8,6.1,7.8S183.1,81.8,179.2,81.8z"/>
		</g>
		<g>
			<path fill="#FFFFFF" d="M215.2,87.4h6.4L222,87V70.8c0-6.6-3.9-10.7-10.2-10.7c-2.8,0-5.4,1-7.2,2.9h-0.5l-0.6-1.9l-0.5-0.5h-5.8
				l-0.4,0.4v25.9l0.4,0.4h6.4l0.4-0.4V73.5c0-4.8,2.1-7.2,6.1-7.2c3,0,4.5,1.7,4.5,5.1v15.7L215.2,87.4z"/>
		</g>
		<g>
			<path fill="#FFFFFF" d="M57.1,99l-0.4-0.4h-6.4L49.9,99v22.7c0,5.9-2.6,8.9-7.8,8.9s-7.8-3-7.8-8.9V99l-0.4-0.4h-6.4L27.1,99
				v22.7c0,9.7,5.3,15,15,15s15-5.3,15-15L57.1,99L57.1,99z"/>
		</g>
		<g>
			<g>
				<polygon fill="#FFFFFF" points="93.6,98.6 93.1,99 93.1,104.3 93.6,104.7 100,104.7 100.4,104.3 100.4,99 100,98.6 				"/>
			</g>
			<g>
				<polygon fill="#FFFFFF" points="100,136.2 100.4,135.8 100.4,109.9 100,109.4 93.6,109.4 93.1,109.9 93.1,135.8 93.6,136.2 				
					"/>
			</g>
		</g>
		<g>
			<polygon fill="#FFFFFF" points="124.8,109.4 124.3,109.9 117.6,127.1 117.1,127.1 110.4,109.9 110,109.4 105.2,109.4 
				104.8,109.9 104.8,115.2 114,135.8 114.4,136.2 120.3,136.2 120.8,135.8 130,115.2 130,109.9 129.5,109.4 			"/>
		</g>
		<g>
			<path fill="#FFFFFF" d="M196.7,120.3c-0.6-0.1-1.1-0.2-1.7-0.2c-2.7-0.4-5-0.7-5-2.6c0-2,1.5-2.3,4-2.3c2.7,0,3.9,0.5,4,1.7
				l0.4,0.4h6.4l0.4-0.4c0-4.9-4.3-7.9-11.2-7.9c-7,0-11.2,3-11.2,8c0,4.5,3.4,7.4,10.2,8.5c0.4,0.1,0.8,0.1,1.2,0.2
				c2.6,0.4,4.3,0.7,4.3,2.7c0,2.1-2.6,2.3-4.5,2.3c-2.3,0-4.5-0.3-4.5-2.8l-0.4-0.4h-6.4l-0.4,0.4c0,5.6,4.5,9,11.8,9
				c5.7,0,11.8-2.2,11.8-8.5C205.8,121.8,199.7,120.8,196.7,120.3z"/>
		</g>
		<g>
			<g>
				<polygon fill="#FFFFFF" points="217,136.2 217.5,135.8 217.5,109.9 217,109.4 210.6,109.4 210.2,109.9 210.2,135.8 210.6,136.2 
									"/>
			</g>
			<g>
				<polygon fill="#FFFFFF" points="210.6,98.6 210.2,99 210.2,104.3 210.6,104.7 217,104.7 217.5,104.3 217.5,99 217,98.6 				"/>
			</g>
		</g>
		<g>
			<path fill="#FFFFFF" d="M235.2,136.2h4.8l0.4-0.4v-5.3l-0.4-0.4h-4.8c-1.2,0-1.8-0.6-1.8-1.8v-12.2l0.4-0.4h6.2l0.4-0.4V110
				l-0.4-0.4h-6.2l-0.4-0.4v-5.1l-0.4-0.4h-6.4l-0.4,0.4v5.1l-0.4,0.4h-4l-0.4,0.4v5.3l0.4,0.4h4l0.4,0.4v12.2
				C226.2,135.5,232.5,136.2,235.2,136.2z"/>
		</g>
		<g>
			<path fill="#FFFFFF" d="M80.9,136.2h6.4l0.4-0.4v-16.2c0-6.6-3.9-10.7-10.2-10.7c-2.8,0-5.4,1-7.2,2.9h-0.5l-0.6-1.9l-0.5-0.5
				h-5.8l-0.4,0.4v25.9l0.4,0.4h6.4l0.4-0.4v-13.5c0-4.8,2.1-7.2,6.1-7.2c3,0,4.5,1.7,4.5,5.1v15.7L80.9,136.2z"/>
		</g>
		<g>
			<path fill="#FFFFFF" d="M157.7,125.4l0.4-0.4v-2.1c0-10.3-6.9-14-12.9-14c-5.9,0-12.9,3.7-12.9,14c0,6.4,3.5,14,13.4,14
				c9.1,0,10.9-5.9,11.2-7.9l-0.4-0.4h-6.4l-0.5,0.5c-0.5,1-2.1,1.7-3.9,1.7c-4.7,0-5.6-3.5-5.6-4.8l0.4-0.4h17.2V125.4z
				 M140.2,119.9c0-1.3,0.9-4.8,5.1-4.8c4.2,0,5.1,3.6,5.1,4.8l-0.4,0.4h-9.4L140.2,119.9z"/>
		</g>
		<g>
			<path fill="#FFFFFF" d="M169.9,111.9l-0.7-2l-0.5-0.5h-5.8l-0.4,0.4v25.9l0.4,0.4h6.4l0.4-0.4v-13c0-5.1,1.8-7.2,6.1-7.2h3.7
				l0.4-0.4v-5.3l-0.4-0.4h-3.2c-5,0-6,2.4-6,2.5H169.9z"/>
		</g>
		<g>
			<path fill="#FFFFFF" d="M248.5,146.9c7.8,0,9.8-5,11.8-10l8.7-21.7v-5.3l-0.4-0.4h-4.7l-0.5,0.5l-6.6,18.8h-0.6l-6.6-18.8
				l-0.5-0.5h-4.7l-0.4,0.4v5.3l8.7,21.2v0.6c-0.6,2-1.4,3.7-4,3.7h-2.6l-0.4,0.4v5.3l0.4,0.4h2.4L248.5,146.9L248.5,146.9z"/>
		</g>
	</g>
</g>
<g>
	<path fill="#2FA6DE" d="M587.4,55.6V35.1L507.2,1.6l-81.3,33.5v51.4l20.3-4v33L528,99.4l79.7,16.1V64L587.4,55.6z M584.3,54.3
		l-56.8-23.7l-18.8,7.7V5.5l75.6,31.6V54.3z M505.6,67.7l-56.4,11.1V66.2l56.4-23.3V67.7z M508.7,41.7l17.2-7.1V71l-17.2-3.5V41.7z
		 M529,34.6l55.3,23.1v25.1L529,71.6V34.6z M429,82.8V37.1l76.6-31.6v34.1l-59.4,24.5v15.3L429,82.8z M449.3,81.9l58.4-11.5
		l18.3,3.7v22.6l-76.7,15.1V81.9z M604.6,111.8L529,96.5V74.7l58.4,11.8V59l17.2,7.2L604.6,111.8L604.6,111.8z"/>
	<path fill="#2FA6DE" d="M609.1,117.3l-81.2-16.4l-83.2,16.4v-33l-20.3,4V34.1L507.1,0l0.5,0.2l81.1,33.9v20.6l20.3,8.5v54.1H609.1z
		 M528,98l78.3,15.8V65L586,56.5V36L507.2,3.1L427.3,36v48.8l20.3-4v33L528,98z M606,113.5l-78.4-15.8V73L586,84.8v-28l20.1,8.4
		L606,113.5L606,113.5z M530.5,95.4l72.7,14.7v-43l-14.4-6v27.2l-58.3-11.8V95.4z M447.9,113.5V80.7l59.8-11.8l19.7,4v24.9
		L447.9,113.5z M450.7,83.1v27l73.8-14.5V75.3l-16.8-3.4L450.7,83.1z M427.6,84.5V36.2l79.5-32.8v37.1L447.6,65v15.5L427.6,84.5z
		 M430.4,38.1v43l14.4-2.8V63.2l59.4-24.5v-31L430.4,38.1z M585.7,84.5l-58.1-11.7V32.4l58.1,24.3V84.5z M530.5,70.4L582.9,81V58.6
		l-52.4-21.9V70.4z M447.9,80.5V65.2l59.2-24.4v28L447.9,80.5z M450.7,67.1V77l53.5-10.5V45.1L450.7,67.1z M527.4,72.7l-20.1-4.1
		V40.7l20.1-8.3V72.7z M510.2,66.3l14.4,2.9V36.7l-14.4,5.9V66.3z M585.7,56.5l-58.3-24.3l-20.2,8.3v-37l78.4,32.8L585.7,56.5
		L585.7,56.5z M527.5,29.1l55.4,23.1V38.1L510.2,7.7v28.5L527.5,29.1z"/>
</g>
<g>
	<g>
		<path fill="#010101" d="M530.6,163.4h-25.4l-0.6-0.6v-38.4l0.6-0.6h6.8l0.6,0.6v31.7l0.6,0.6h17.4l0.6,0.6v5.7L530.6,163.4z"/>
	</g>
	<g>
		<path fill="#010101" d="M543,130.6h-6.8l-0.6-0.6v-5.7l0.6-0.6h6.8l0.6,0.6v5.7L543,130.6z M543,163.4h-6.8l-0.6-0.6v-27.1
			l0.6-0.6h6.8l0.6,0.6v27.1L543,163.4z"/>
	</g>
	<g>
		<path fill="#010101" d="M566.2,163.9c-5.1,0-7.3-2.8-7.3-2.8h-0.6l-0.6,1.7l-0.6,0.6h-6.2l-0.6-0.6v-38.4l0.6-0.6h6.8l0.6,0.6v13
			h0.6c0,0,2.3-2.8,7.3-2.8c6.8,0,12.4,5.7,12.4,14.7C578.6,158.3,573,163.9,566.2,163.9z M564.5,141.3c-4.5,0-6.2,3.4-6.2,7.9
			s1.7,7.9,6.2,7.9s6.2-3.4,6.2-7.9C570.7,144.7,569,141.3,564.5,141.3z"/>
	</g>
	<g>
		<path fill="#010101" d="M599.5,141.9h-4c-4.5,0-6.2,2.3-6.2,7.3v13.6l-0.6,0.6h-6.8l-0.6-0.6v-27.1l0.6-0.6h6.2l0.6,0.6l0.6,1.7
			h0.6c0,0,1.1-2.3,6.2-2.3h3.4l0.6,0.6v5.7L599.5,141.9z"/>
	</g>
	<g>
		<path fill="#010101" d="M625,163.4h-6.2l-0.6-0.6l-0.6-1.1H617c0,0-2.3,2.3-6.2,2.3c-6.2,0-10.2-3.4-10.2-9
			c0-8.5,7.9-9.6,12.4-9.6c2.3,0,4,0.6,4,0.6l0.6-0.6v-0.6c0-2.8-0.6-3.4-4-3.4c-1.7,0-3.4,0-4,1.7l-0.6,0.6h-6.8l-0.6-0.6
			c0-3.4,2.8-8.5,11.9-8.5c9,0,11.9,4.5,11.9,13v15.3L625,163.4z M617,151.5c0,0-1.1-0.6-3.4-0.6c-3.4,0-5.1,1.1-5.1,3.4
			c0,1.7,1.1,2.8,4,2.8c2.8,0,5.1-1.7,5.1-4V152L617,151.5z"/>
	</g>
	<g>
		<path fill="#010101" d="M648.7,141.9h-4c-4.5,0-6.2,2.3-6.2,7.3v13.6l-0.6,0.6h-6.8l-0.6-0.6v-27.1l0.6-0.6h6.2l0.6,0.6l0.6,1.7
			h0.6c0,0,1.1-2.3,6.2-2.3h3.4l0.6,0.6v5.7L648.7,141.9z"/>
	</g>
	<g>
		<path fill="#010101" d="M668.5,163.9c-2.3,5.7-4.5,9-12.4,9h-2.8l-0.6-0.6v-5.7l0.6-0.6h2.8c2.8,0,3.4-0.6,4-2.3v-0.6l-9-22v-5.7
			l0.6-0.6h5.1l0.6,0.6l6.8,19.2h0.6l6.8-19.2l0.6-0.6h5.1l0.6,0.6v5.7L668.5,163.9z"/>
	</g>
</g>
<g>
	<rect x="722.5" y="0.9" fill="#FEDC00" width="7" height="135.4"/>
</g>
<rect x="774.6" y="12.3" fill="none" width="276" height="141"/>
<g enable-background="new    ">
	<path d="M803.2,18.6h-16.4l-0.5,0.5V27l0.5,0.5h15.4l0.5,0.5v5.5l-0.5,0.5h-15.4l-0.5,0.5v14.3l-0.5,0.5h-6.4l-0.5-0.5v-36l0.5-0.5
		h23.8l0.5,0.5v5.3L803.2,18.6z"/>
	<path d="M829.7,49.4h-5.8l-0.5-0.5l-0.5-1.1h-0.5c0,0-2.1,2.1-5.8,2.1c-5.8,0-9.5-3.2-9.5-8.5c0-7.9,7.4-9,11.7-9
		c2.1,0,3.7,0.5,3.7,0.5l0.5-0.5v-0.5c0-2.6-0.5-3.2-3.7-3.2c-1.6,0-3.2,0-3.7,1.6l-0.5,0.5h-6.4l-0.5-0.5c0-3.2,2.6-7.9,11.1-7.9
		s11.1,4.2,11.1,12.2v14.3L829.7,49.4z M822.3,38.3c0,0-1.1-0.5-3.2-0.5c-3.2,0-4.8,1.1-4.8,3.2c0,1.6,1.1,2.6,3.7,2.6
		s4.8-1.6,4.8-3.7v-1.1L822.3,38.3z"/>
	<path d="M847.7,43.6c2.6,0,4.2-1.1,4.8-2.6l0.5-0.5h6.4l0.5,0.5c-1.1,6.4-6.4,9-12.2,9c-7.9,0-13.2-5.3-13.2-13.8
		s5.3-13.8,13.2-13.8c5.8,0,11.1,2.6,12.2,9l-0.5,0.5H853l-0.5-0.5c-0.5-1.6-2.1-2.7-4.8-2.7c-3.7,0-5.8,2.7-5.8,7.4
		S844,43.6,847.7,43.6z"/>
	<path d="M864.7,22.9h6.4l0.5,0.5v15.4c0,2.6,1.1,4.8,4.2,4.8c3.7,0,5.3-2.6,5.3-6.4V23.4l0.5-0.5h6.4l0.5,0.5v25.4l-0.5,0.5h-5.8
		l-0.5-0.5l-0.5-1.6h-0.6c0,0-1.6,2.7-6.4,2.7c-6.4,0-10.1-4.2-10.1-10.6V23.4L864.7,22.9z"/>
	<path d="M901.8,49.4h-6.4l-0.5-0.5v-36l0.5-0.5h6.4l0.5,0.5v36L901.8,49.4z"/>
	<path d="M918.7,41.4c0,1.1,0.5,1.6,1.6,1.6h4.8l0.5,0.5v5.3l-0.5,0.5h-4.8c-4.8,0-9-2.1-9-7.9V29.8l-0.5-0.5h-3.7l-0.5-0.5v-5.3
		l0.5-0.5h3.7l0.5-0.5v-4.8l0.5-0.5h6.4l0.5,0.5v4.8l0.5,0.5h5.8l0.5,0.5v5.3l-0.5,0.5h-5.8l-0.5,0.5V41.4z"/>
	<path d="M945.8,49.9c-2.1,5.3-4.2,8.5-11.7,8.5h-2.7l-0.5-0.5v-5.3l0.5-0.5h2.7c2.6,0,3.2-0.5,3.7-2.1v-0.5l-8.5-20.7v-5.3l0.5-0.5
		h4.8l0.5,0.5l6.4,18h0.5l6.4-18l0.5-0.5h4.8l0.5,0.5v5.3L945.8,49.9z"/>
</g>
<g enable-background="new    ">
	<path d="M789.4,100.9c-7.9,0-13.2-5.3-13.2-13.8s5.3-13.8,13.2-13.8s13.2,5.3,13.2,13.8C802.7,95.6,797.4,100.9,789.4,100.9z
		 M789.4,79.7c-3.7,0-5.8,2.7-5.8,7.4s2.1,7.4,5.8,7.4s5.8-2.6,5.8-7.4S793.1,79.7,789.4,79.7z"/>
	<path d="M824.4,63.8v5.3l-0.5,0.5h-4.8c-1.1,0-1.6,0.5-1.6,1.6v2.1l0.5,0.5h5.3l0.5,0.5v5.3l-0.5,0.5H818l-0.5,0.5v19.1l-0.5,0.5
		h-6.4l-0.5-0.5V80.6l-0.5-0.5h-3.7l-0.5-0.5v-5.3l0.5-0.5h3.7l0.5-0.5v-2.1c0-5.8,4.2-7.9,9-7.9h4.8L824.4,63.8z"/>
	<path d="M872.1,100.4h-4.8l-0.5-0.5l-2.6-6.9l-1.1-0.5h-13.2l-1.1,0.5l-2.6,6.9l-0.5,0.5h-4.8l-0.5-0.5v-5.3l12.2-30.7l0.5-0.5h6.9
		l0.5,0.5l12.2,30.7v5.3L872.1,100.4z M856.7,72.8h-0.5l-4.8,12.7l0.5,0.5h9l0.5-0.5L856.7,72.8z"/>
	<path d="M893.8,80.2h-3.7c-4.2,0-5.8,2.1-5.8,6.9v12.7l-0.5,0.5h-6.4l-0.5-0.5V74.4l0.5-0.5h5.8l0.5,0.5l0.5,1.6h0.5
		c0,0,1.1-2.1,5.8-2.1h3.2l0.5,0.5v5.3L893.8,80.2z"/>
	<path d="M908.7,92.4c0,1.1,0.5,1.6,1.6,1.6h4.8l0.5,0.5v5.3l-0.5,0.5h-4.8c-4.8,0-9-2.1-9-7.9V80.7l-0.5-0.5h-3.7l-0.5-0.5v-5.3
		l0.5-0.5h3.7l0.5-0.5v-4.8l0.5-0.5h6.4l0.5,0.5v4.8l0.5,0.5h5.8l0.5,0.5v5.3l-0.5,0.5h-5.8l-0.5,0.5V92.4z"/>
	<path d="M930.4,100.9c-7.4,0-11.7-3.7-11.7-9l0.5-0.5h6.4l0.5,0.5c0,2.1,1.6,2.6,4.2,2.6c2.6,0,4.2-0.5,4.2-2.1
		c0-2.1-2.1-2.1-5.3-2.6s-10.1-2.1-10.1-8.5c0-4.2,3.2-7.9,11.1-7.9c6.4,0,11.1,2.6,11.1,7.9l-0.5,0.5h-6.2l-0.5-0.5
		c0-1.1-1.1-1.6-3.7-1.6c-2.7,0-3.7,0.5-3.7,2.1c0,2.1,3.2,2.1,6.4,2.6s9,1.6,9,7.9C942.1,96.7,938.9,100.9,930.4,100.9z"/>
</g>
</svg>
